<?xml version="1.0"?><svg width="640" height="480" xmlns="http://www.w3.org/2000/svg">
 <title>chrisdimitrios</title>
 <g>
  <metadata transform="translate(10,-2) translate(0,1) " id="CorelCorpID_0Corel-Layer"/>
  <g id="_152222920">
   <path fill="#ffffff" d="m308.089508,182.528732c-38.529205,21.596725 20.257782,128.598221 62.418793,104.965134c7.487122,12.590576 31.603088,53.145996 39.09021,65.735901c-17.788269,9.971802 -32.845276,16.258179 -53.468781,4.811798c-57.261169,-31.780762 -120.290466,-137.734863 -118.497192,-200.931656c0.622498,-21.950439 13.942825,-30.551346 31.366089,-40.317787c7.487091,12.590599 31.60379,53.146019 39.090179,65.73661l0.000702,0z" class="fil0" id="_152222248"/>
   <path fill="#ffffff" d="m324.251465,180.745773c-4.162964,2.333633 -9.520203,0.94072 -11.924194,-3.101486l-36.85199,-61.971939c-2.404022,-4.042702 -0.96936,-9.243484 3.194031,-11.577545l19.36853,-10.85675c4.163391,-2.334053 9.521484,-0.939896 11.925049,3.102318l36.85199,61.971535c2.403625,4.04187 0.968506,9.243073 -3.194458,11.576721l-19.368958,10.857147z" class="fil0" id="_150519168"/>
   <path fill="#ffffff" d="m424.927856,350.047791c-4.162964,2.333618 -9.520203,0.940735 -11.924225,-3.101929l-36.851959,-61.971924c-2.404053,-4.042267 -0.96936,-9.243469 3.194031,-11.577118l19.36853,-10.857147c4.163422,-2.333679 9.521484,-0.939514 11.925079,3.102295l36.851959,61.971527c2.403595,4.042267 0.968506,9.2435 -3.194458,11.577118l-19.368958,10.857178z" class="fil0" id="_226148072"/>
  </g>
  <title>Layer 1</title>
 </g>
</svg>